<svg
  preserveAspectRatio="none" overflow="visible" style="display: block" width="2792.57"
  height="338.567" viewBox="0 0 2792.57 338.567" fill="none" xmlns="http://www.w3.org/2000/svg">
  <g id="Hills">
    <path
      id="Vector"
      d="M2768.81 63.8256C2774.35 63.9756 2779.88 64.1256 2785.42 64.3156V191.996L2403.75 191.696L2244.75 191.546L2051.31 191.396H2051.2L1536.42 190.946H1517.56L1511.9 190.906H1503.54L1405.77 190.826L1374.36 190.786H1374.34L1272.37 190.706L1234.67 190.666L1185.43 190.626H1170.47L950.4 190.436H948.57L833.689 190.326V188.116L833.76 149.196L833.78 144.256L833.8 137.626L833.87 95.1556C879.44 91.7056 924.969 87.8856 970.429 83.6556C971.419 83.5856 972.41 83.5056 973.4 83.3956C988.95 81.9756 1004.48 80.4756 1020.04 78.9356H1020.06C1064.97 74.5156 1109.82 69.7556 1154.59 64.6256C1163.45 63.6156 1172.3 62.5656 1181.14 61.5156C1186.82 60.8456 1192.48 60.1656 1198.15 59.4956C1203.54 58.8556 1208.95 58.1856 1214.35 57.5056H1214.39C1223.22 56.4556 1232.03 55.3756 1240.82 54.2456C1241.77 54.1356 1242.69 54.0256 1243.62 53.8656H1243.64C1243.71 53.9056 1243.78 53.9056 1243.86 53.8656H1243.91C1267.1 50.9856 1290.26 47.9456 1313.4 44.8356C1347.9 40.2256 1382.35 35.3956 1416.74 30.3356C1437.22 27.3056 1457.73 24.2356 1478.26 21.2356C1516.36 15.6556 1554.56 10.4156 1592.94 6.51561C1596.75 6.10561 1600.56 5.72561 1604.37 5.39561C1638.49 2.17561 1672.74 0.155597 1707.19 0.00559721C1750.89 -0.144403 1794.37 2.7356 1837.73 6.8256H1837.75C1862.76 9.1456 1887.73 11.8856 1912.66 14.6156C1925.1 15.9656 1937.54 17.3456 1949.96 18.6656C1988.94 22.8256 2027.97 26.5256 2067.05 29.9056C2081.34 31.1456 2095.64 32.3056 2109.95 33.4656H2109.97C2121.71 34.4056 2133.45 35.3056 2145.21 36.1656C2154.97 36.9156 2164.75 37.6256 2174.53 38.3056C2197.92 39.9556 2221.35 41.4856 2244.77 42.9156C2260.12 43.8556 2275.49 44.7556 2290.88 45.6156C2307.02 46.5556 2323.19 47.4156 2339.35 48.2356C2361.3 49.3556 2383.23 50.4056 2405.2 51.3456H2405.22C2448.06 53.2956 2490.92 55.0156 2533.8 56.5156C2545.52 56.9656 2557.21 57.3756 2568.93 57.7156H2568.95C2602.32 58.8756 2635.68 59.9256 2669.07 60.9356H2669.09C2681.71 61.3056 2694.35 61.6856 2706.97 62.0556H2706.99C2727.61 62.6556 2748.23 63.2556 2768.83 63.8156L2768.81 63.8256Z"
      fill="#BD3244"
    />
    <path
      id="Vector_2"
      d="M1564.88 335.236L1532.4 335.286L1386.46 335.556L1290.27 335.726L1268.64 335.746L1227.23 335.816H1219.96L1217.31 335.836L1156.2 335.936H1151.8L1109.64 336.006L998.42 336.206L994.12 336.226H989.05L974.74 336.246H967.1L965.6 336.276H956.26L886.76 336.396L881.5 336.416L861.75 336.436H859L853.11 336.466H850.31L832.79 336.486H828.55L824.82 336.506L715.6 336.676L708.54 336.696H699.07L600.24 336.896L531.44 336.996H531.16L515.49 337.046H502.31L477.33 337.096L468.22 337.116H466.56L458.27 337.136H451.73L437.79 337.156H431.48L429.96 337.176H422.13L414.23 337.196H409.92L400.77 337.216H390.46L372.17 337.266L257.87 337.466L238.4 337.486H237.67L230.15 337.506L151.03 337.626L89.17 337.746H80.29L53.25 337.796L0 337.896V95.0159C7.43 94.4159 15.3801 93.7958 23.8201 93.1758C75.4401 89.3958 144.92 85.0458 220.02 80.0458C220.46 80.0258 220.89 79.9959 221.35 79.9459C262.57 77.2159 305.46 74.3059 348.01 71.1659C351.77 70.8659 355.55 70.5959 359.31 70.3159C360.02 70.2659 360.74 70.2159 361.47 70.1459C361.73 70.1459 361.99 70.1259 362.27 70.0959C363.79 69.9759 365.3 69.8758 366.82 69.7458C370.49 69.4758 374.18 69.1959 377.85 68.8959C379.16 68.7959 380.47 68.6959 381.8 68.6259C383.77 68.4559 385.74 68.3059 387.7 68.1559C390.05 67.9859 392.39 67.7858 394.74 67.6058C395.73 67.5358 396.74 67.4558 397.74 67.3558C398.18 67.3358 398.6 67.3059 399.04 67.2559C402 67.0359 404.94 66.7858 407.89 66.5558C413.69 66.0858 419.46 65.6359 425.19 65.1359C428.66 64.8659 432.11 64.5859 435.55 64.3159C437.27 64.1459 438.98 64.0158 440.68 63.8658C444.12 63.5658 447.55 63.2959 450.96 62.9659C461.22 62.0959 471.34 61.1958 481.31 60.3058C512.15 57.4958 541.45 54.5659 568.25 51.4759C572.9 50.9259 577.48 50.4058 581.98 49.8558C585.22 49.4558 588.39 49.0559 591.54 48.6859C592.76 48.5159 593.96 48.3659 595.17 48.2159C602.75 47.2459 610.08 46.2759 617.11 45.2859C632.21 43.1459 645.97 40.9559 658.13 38.6959C677.77 35.0359 697.44 31.5058 717.17 28.1758C737.84 24.7158 758.54 21.5358 779.27 18.8058C788 17.6358 796.72 16.5659 805.44 15.5959C810.44 15.0259 815.44 14.5059 820.44 14.0059C815.29 15.3259 809.11 16.9159 802.38 18.7759C793.59 21.1659 783.85 23.9459 774.23 26.9559C766.39 29.4159 758.6 32.0059 751.48 34.6659C750.34 35.0859 740.42 38.8659 727.78 45.7259C725.88 46.7659 723.92 47.8858 721.92 49.0558C718.44 51.0958 712.94 54.4759 706.92 59.9459C706.37 60.4459 705.81 60.9659 705.24 61.5159C704.98 61.7659 704.7 62.0159 704.44 62.2859C701.8 64.8759 699.57 67.0858 697.84 69.1758C695.48 71.9858 694.05 74.5759 693.85 77.5759C693.7 79.6859 694.19 81.7758 695.07 83.7458C698.34 91.0058 707.15 96.9759 710.75 99.4159C720.59 106.076 743.05 112.446 770.41 118.216C773.54 118.866 776.74 119.506 779.97 120.156C787.78 121.696 795.9 123.166 804.17 124.606C825.39 128.286 847.55 131.596 867.91 134.376C870.4 134.726 872.87 135.046 875.3 135.366C888.54 137.136 900.84 138.676 911.38 139.946C915.02 140.396 918.46 140.796 921.66 141.166H921.7C931.32 142.306 938.74 143.106 943.04 143.576C960.3 145.836 977.57 148.106 994.83 150.366C1000.47 151.116 1006.1 151.856 1011.74 152.606C1014.82 153.006 1017.91 153.406 1021 153.826L1140.95 169.566C1149.07 170.636 1157.19 171.676 1165.31 172.746H1165.32C1235.1 181.926 1304.89 191.076 1374.69 200.246C1375.23 200.296 1375.78 200.366 1376.34 200.446C1381.43 201.116 1386.51 201.786 1391.62 202.456C1392.22 202.526 1392.82 202.606 1393.43 202.676C1393.69 202.726 1393.95 202.746 1394.23 202.796C1395.28 202.916 1396.34 203.066 1397.41 203.196C1401.86 203.796 1406.32 204.366 1410.78 204.966C1412.21 205.166 1413.65 205.336 1415.09 205.536C1415.45 205.586 1415.83 205.636 1416.21 205.686C1417.62 205.856 1419.04 206.056 1420.47 206.236C1420.99 206.306 1421.53 206.386 1422.07 206.456C1422.65 206.526 1423.24 206.606 1423.82 206.676C1423.88 206.676 1423.95 206.696 1424.02 206.696C1424.12 206.696 1424.22 206.726 1424.34 206.746C1424.51 206.766 1424.69 206.766 1424.86 206.796C1425.08 206.846 1425.3 206.866 1425.53 206.896C1425.92 206.946 1426.32 206.996 1426.73 207.046C1426.88 207.066 1427.02 207.096 1427.17 207.116H1427.3C1427.66 207.166 1428.04 207.216 1428.42 207.266C1430.43 207.536 1432.46 207.816 1434.48 208.066C1435.09 208.136 1435.72 208.236 1436.35 208.316C1436.57 208.336 1436.8 208.366 1437.04 208.416C1437.23 208.436 1437.42 208.466 1437.62 208.486C1437.78 208.506 1437.94 208.506 1438.12 208.536C1438.54 208.606 1438.98 208.656 1439.42 208.706C1447.58 209.776 1455.75 210.846 1463.91 211.916C1471.58 212.936 1479.24 213.926 1486.91 214.946C1487.41 215.016 1487.92 215.066 1488.41 215.146C1490.36 215.396 1492.32 215.646 1494.27 215.916C1494.68 215.966 1495.1 216.016 1495.51 216.066C1495.82 216.116 1496.14 216.166 1496.44 216.186C1496.92 216.256 1497.39 216.306 1497.87 216.386C1509.41 217.906 1520.97 219.416 1532.52 220.936C1533.95 221.106 1535.38 221.306 1536.81 221.486C1538.11 221.656 1539.42 221.836 1540.72 222.006C1541.48 222.106 1542.24 222.206 1542.99 222.306C1550.26 223.256 1557.52 224.216 1564.8 225.166L1564.83 244.656V247.466L1564.86 261.716V274.196L1564.92 303.186L1564.95 327.376V335.086L1564.88 335.236Z"
      fill="#D82850"
    />
    <path
      id="Vector_3"
      d="M2217.23 120.156C2308.23 120.856 2390.04 121.576 2450.26 122.546V333.606L2429.75 333.626L2423.18 333.646H2412.66L2407.7 333.666L2398.27 333.686H2397.24L2259.02 333.936L2177.77 334.086L2124.99 334.186L2084.47 334.256H2084.41L1926.66 334.556H1926.59L1835.78 334.726L1780.29 334.826H1780.28L1742.86 334.896H1742.85L1702.05 334.966H1702.02L1676.44 335.016H1676.4L1595.63 335.166C1595.63 335.166 1595.62 335.146 1595.6 335.166L1564.93 335.216V327.506L1564.89 303.316L1564.85 274.326V261.996L1564.84 261.846L1564.81 247.596V244.786L1564.78 225.296C1557.51 224.356 1550.25 223.386 1542.97 222.436C1542.21 222.336 1541.45 222.236 1540.7 222.136C1539.4 221.966 1538.09 221.786 1536.79 221.616C1535.36 221.446 1533.93 221.246 1532.5 221.066C1520.96 219.546 1509.4 218.036 1497.85 216.516C1497.37 216.446 1496.9 216.396 1496.42 216.316C1496.11 216.296 1495.79 216.246 1495.49 216.196C1495.08 216.146 1494.66 216.096 1494.25 216.046C1492.3 215.776 1490.34 215.526 1488.39 215.276C1487.89 215.206 1487.38 215.156 1486.89 215.076C1479.22 214.056 1471.56 213.066 1463.89 212.046H1463.8C1455.67 210.976 1447.53 209.906 1439.4 208.836C1438.96 208.786 1438.53 208.736 1438.1 208.666C1437.93 208.646 1437.76 208.646 1437.6 208.616C1437.4 208.596 1437.21 208.566 1437.02 208.546C1436.79 208.496 1436.55 208.476 1436.33 208.446C1435.7 208.376 1435.08 208.276 1434.46 208.196H1434.45C1432.44 207.926 1430.43 207.676 1428.42 207.396C1428.42 207.396 1428.42 207.376 1428.41 207.396C1428.03 207.346 1427.65 207.296 1427.29 207.246H1427.16C1427.01 207.226 1426.87 207.196 1426.72 207.176C1426.31 207.126 1425.92 207.076 1425.52 207.026C1425.29 207.006 1425.07 206.976 1424.85 206.926C1424.68 206.906 1424.5 206.906 1424.33 206.876C1424.21 206.856 1424.11 206.826 1424.01 206.826C1423.94 206.826 1423.86 206.806 1423.81 206.806C1423.23 206.736 1422.64 206.656 1422.06 206.586C1421.52 206.516 1420.98 206.436 1420.46 206.366C1419.03 206.196 1417.62 205.996 1416.2 205.816C1415.82 205.766 1415.44 205.716 1415.08 205.666C1413.64 205.466 1412.19 205.296 1410.77 205.096C1406.31 204.496 1401.85 203.926 1397.4 203.326C1396.34 203.206 1395.27 203.056 1394.22 202.926C1394.22 202.926 1394.22 202.926 1394.21 202.926C1393.95 202.876 1393.69 202.856 1393.42 202.806C1393.42 202.806 1393.41 202.826 1393.41 202.806C1392.81 202.736 1392.21 202.656 1391.62 202.586C1386.52 201.916 1381.43 201.246 1376.34 200.576C1375.79 200.506 1375.23 200.426 1374.69 200.376C1335.43 195.206 1296.18 190.056 1256.92 184.906C1226.4 180.906 1195.89 176.896 1165.38 172.876H1165.23C1157.13 171.806 1149.03 170.736 1140.94 169.696H1140.88C1100.91 164.446 1060.95 159.206 1021 153.956H1020.97C1017.88 153.536 1014.8 153.136 1011.73 152.736C1009.06 152.386 1006.39 152.016 1003.73 151.666C1000.77 151.296 997.81 150.896 994.85 150.496H994.81C977.55 148.236 960.29 145.966 943.03 143.706C942.72 143.676 942.4 143.636 942.07 143.606C941.66 143.556 941.22 143.506 940.76 143.456C940.48 143.436 940.19 143.386 939.9 143.356C939.35 143.306 938.75 143.236 938.12 143.186C937.9 143.156 937.669 143.136 937.429 143.116C937.079 143.066 936.72 143.046 936.35 142.996C935.71 142.926 935.05 142.846 934.35 142.776C933.9 142.726 933.429 142.676 932.969 142.626C931.249 142.426 929.399 142.206 927.429 141.976C926.979 141.926 926.51 141.876 926.05 141.826C924.68 141.656 923.27 141.476 921.78 141.306H921.65C921.02 141.236 920.379 141.156 919.729 141.086C918.429 140.936 917.079 140.766 915.709 140.616C915.009 140.516 914.33 140.446 913.61 140.366C912.88 140.266 912.14 140.196 911.38 140.096C910.18 139.946 908.959 139.796 907.709 139.676C907.329 139.626 906.95 139.576 906.57 139.526C905.97 139.456 905.36 139.376 904.75 139.306C903.51 139.156 902.27 138.986 900.99 138.836C899.72 138.686 898.44 138.516 897.13 138.366C896.96 138.346 896.78 138.316 896.61 138.296C895.12 138.096 893.61 137.926 892.08 137.726C890.17 137.476 888.22 137.226 886.25 136.976C885.26 136.856 884.27 136.706 883.26 136.576C882.25 136.456 881.249 136.306 880.229 136.176C879.429 136.076 878.61 135.956 877.78 135.856C876.96 135.756 876.15 135.636 875.32 135.536C872.89 135.216 870.419 134.866 867.929 134.546C866.339 134.326 864.74 134.096 863.12 133.876C860.1 133.456 857.059 133.026 853.979 132.586C853.219 132.486 852.449 132.366 851.679 132.266C850.589 132.116 849.49 131.946 848.4 131.796C847.95 131.726 847.48 131.646 847.03 131.596C844.7 131.246 842.35 130.896 840 130.556C838.44 130.306 836.87 130.086 835.31 129.836C830.3 129.086 825.25 128.296 820.24 127.476C818.1 127.126 815.94 126.776 813.8 126.436C810.58 125.886 807.389 125.346 804.189 124.796C802.819 124.546 801.45 124.326 800.08 124.076C798.53 123.806 796.999 123.526 795.469 123.256C794.999 123.186 794.54 123.086 794.09 123.006C792.27 122.656 790.46 122.336 788.65 121.986C787.13 121.716 785.65 121.436 784.16 121.136C782.76 120.866 781.38 120.586 779.99 120.336C779.17 120.166 778.36 119.986 777.54 119.836C776.74 119.686 775.95 119.516 775.16 119.366C774.58 119.246 774.009 119.146 773.439 119.016C772.429 118.796 771.429 118.596 770.419 118.396C766.399 117.526 762.479 116.676 758.689 115.806C757.639 115.556 756.62 115.306 755.6 115.086C754.48 114.816 753.36 114.536 752.26 114.286C751.17 114.016 750.09 113.736 749.02 113.466C748.39 113.316 747.779 113.166 747.169 112.996C746.559 112.846 745.95 112.696 745.35 112.526C744.74 112.376 744.14 112.226 743.56 112.056C743.08 111.936 742.6 111.786 742.12 111.656C740.71 111.256 739.319 110.886 737.979 110.486C737.309 110.316 736.639 110.116 735.979 109.916C735.669 109.846 735.37 109.746 735.06 109.646C734.71 109.546 734.37 109.446 734.02 109.326C733.12 109.076 732.23 108.776 731.37 108.506C731.18 108.436 730.99 108.386 730.8 108.306C730.1 108.086 729.419 107.856 728.729 107.636C728.059 107.416 727.4 107.186 726.75 106.966C725.61 106.566 724.519 106.146 723.459 105.746C721.869 105.146 720.359 104.556 718.959 103.926C718.489 103.726 718.04 103.526 717.59 103.306C714.91 102.086 712.62 100.846 710.77 99.6059C709.98 99.0559 708.95 98.3659 707.77 97.5159C707.43 97.2959 707.08 97.0459 706.74 96.7659C706.23 96.3659 705.68 95.9459 705.14 95.5259C705.13 95.5059 705.11 95.5059 705.1 95.5059C704.84 95.2859 704.58 95.0559 704.31 94.8559C704.02 94.6059 703.739 94.3859 703.459 94.1359C703.429 94.1159 703.42 94.0859 703.39 94.0859C703.01 93.7359 702.62 93.4159 702.24 93.0659C701.86 92.7159 701.47 92.3659 701.09 91.9759C700.73 91.6259 700.36 91.2559 700 90.8859C699.99 90.8659 699.969 90.8659 699.959 90.8359C699.739 90.6159 699.52 90.3659 699.3 90.1159C698.86 89.6459 698.44 89.1459 698.03 88.6259C698 88.5759 697.959 88.5559 697.929 88.5059C697.609 88.0859 697.29 87.6559 697 87.2659C696.96 87.1959 696.93 87.1459 696.88 87.0959C696.52 86.5459 696.18 86.0259 695.87 85.4759C695.58 84.9759 695.33 84.4559 695.1 83.9559C695.01 83.7859 694.94 83.5859 694.87 83.3859C694.8 83.2159 694.72 83.0359 694.65 82.8659C694.24 81.7259 693.96 80.5559 693.88 79.3559C693.87 79.0859 693.85 78.8059 693.85 78.5359C693.85 78.2859 693.86 78.0359 693.88 77.7859C693.91 77.4159 693.95 77.0659 694.01 76.6959C694.05 76.4459 694.109 76.1759 694.179 75.9259C694.219 75.7559 694.27 75.5759 694.33 75.4059C694.33 75.3859 694.33 75.3559 694.34 75.3359C694.4 75.1359 694.47 74.9359 694.54 74.7359C694.58 74.6159 694.629 74.5159 694.669 74.3859C694.769 74.1359 694.87 73.8859 695.01 73.6359C695.04 73.5659 695.08 73.4859 695.11 73.4159C695.24 73.1659 695.39 72.8959 695.55 72.6459C695.64 72.4759 695.74 72.2959 695.84 72.1459C696.12 71.6759 696.42 71.2259 696.77 70.7759C696.92 70.5559 697.08 70.3559 697.25 70.1559C697.44 69.8859 697.64 69.6359 697.86 69.3859C698.28 68.8359 698.76 68.3159 699.26 67.7959C699.49 67.5259 699.76 67.2459 700.02 66.9759C701.33 65.5859 702.819 64.1159 704.469 62.4959C704.729 62.2259 705.01 61.9759 705.27 61.7259C705.74 61.2759 706.17 60.8559 706.63 60.4559C706.73 60.3559 706.829 60.2559 706.939 60.1859C706.939 60.1859 706.939 60.1659 706.949 60.1659C707.039 60.0959 707.119 59.9959 707.229 59.9159C707.889 59.3159 708.539 58.7459 709.179 58.1959C710.989 56.6759 712.72 55.3359 714.34 54.1659C715.03 53.6959 715.7 53.2259 716.35 52.7759C716.66 52.5759 716.96 52.3759 717.25 52.1759C717.56 51.9759 717.85 51.7759 718.12 51.6059C718.41 51.4059 718.689 51.2359 718.969 51.0559C720.079 50.3559 721.069 49.7859 721.939 49.2659C723.939 48.0959 725.9 46.9759 727.8 45.9359C727.8 45.9359 727.81 45.9293 727.83 45.9159C728.19 45.7459 728.56 45.5459 728.91 45.3459C732.5 43.4359 735.83 41.7659 738.81 40.3459C739.36 40.0759 739.899 39.8259 740.429 39.5959C740.429 39.5959 740.439 39.5893 740.459 39.5759C742.329 38.7059 744.019 37.9559 745.469 37.3359C745.719 37.2359 745.949 37.1359 746.169 37.0359C746.259 36.9859 746.33 36.9659 746.4 36.9359C746.78 36.7659 747.129 36.6159 747.459 36.4859C748.869 35.8859 749.969 35.4659 750.669 35.1959C750.769 35.1459 750.869 35.1259 750.949 35.0959C751.119 35.0259 751.27 34.9759 751.37 34.9259C751.43 34.9059 751.47 34.9059 751.5 34.8759C758.63 32.2159 766.4 29.6259 774.25 27.1659H774.28C776.67 26.3959 779.079 25.6759 781.469 24.9559C782.679 24.6059 783.88 24.2559 785.07 23.8859C788.8 22.7959 792.49 21.7259 796.08 20.7259C797.09 20.4559 798.08 20.1759 799.07 19.9059C800.19 19.5859 801.3 19.2859 802.39 18.9859H802.4C804.09 18.5359 805.74 18.0859 807.34 17.6459C808.94 17.2259 810.5 16.7959 812.02 16.4059C813.54 16.0059 815.01 15.6359 816.41 15.2659C817.82 14.8959 819.179 14.5459 820.459 14.2259C839.249 12.3659 858.04 10.9659 876.83 10.1759C882.81 9.92589 888.769 9.72591 894.729 9.62591H894.74C908.18 9.30591 921.61 9.35589 935.03 9.79589C938.37 9.89589 941.71 10.0159 945.04 10.1959C952.62 10.5159 960.2 10.9959 967.78 11.6159C975.08 12.1859 982.399 12.9059 989.699 13.7559H989.76C989.83 13.7559 989.909 13.7759 989.979 13.7759C995.829 14.4459 1001.67 15.2159 1007.5 16.0659C1012.43 16.7659 1017.34 17.5359 1022.24 18.3559H1022.27C1043.89 21.8859 1065.4 26.3859 1086.85 31.3859H1086.89C1103.04 35.1359 1119.18 39.1659 1135.29 43.3259C1175.73 53.6659 1216.12 64.5859 1256.79 73.0159C1257.78 73.2359 1258.77 73.4359 1259.76 73.6359C1280.61 77.9159 1300.47 81.6459 1319.93 85.0259C1324.43 85.8259 1328.91 86.5659 1333.37 87.3159C1347.54 89.7059 1361.56 91.9159 1375.67 94.0259C1376.47 94.1459 1377.27 94.2759 1378.08 94.3759H1378.12C1406.06 98.5559 1434.42 102.386 1464.91 106.456C1469.79 107.106 1476.22 107.726 1484.05 108.316C1498.52 109.386 1517.8 110.356 1540.99 111.246H1541C1551.1 111.616 1561.93 111.966 1573.45 112.316C1679.99 115.526 1843.89 117.266 2007.39 118.636C2024.81 118.786 2042.21 118.906 2059.56 119.056H2059.57C2113.46 119.456 2166.65 119.856 2217.01 120.226C2217.04 120.226 2217.08 120.246 2217.11 120.226C2217.14 120.246 2217.17 120.246 2217.18 120.246H2217.3L2217.23 120.156Z"
      fill="#EC3C5D"
    />
    <rect
      id="Rectangle 22836" x="2418.68" y="122.542" width="366.737"
      height="216.025" fill="#EC3C5D"
    />
    <path id="Vector 26" d="M1557.1 338.567H2792.57L1564.24 225.268L1557.1 338.567Z" fill="#D82850" />
  </g>
</svg>
