<svg
  preserveAspectRatio="none" overflow="visible" style="display: block" width="124"
  height="25.577" viewBox="0 0 124 25.577" fill="none" xmlns="http://www.w3.org/2000/svg">
  <g id="Group 2776">
    <path
      id="Vector"
      d="M24.0798 1.20958L16.8208 12.8427L24.924 23.9465L15.1784 24.5728L8.90995 15.4042L9.15844 25.0239L0.558217 25.577L0 2.82138L8.60354 2.26823L8.83674 11.3058L14.3018 1.83762L24.0798 1.20958Z"
      fill="#EC1848"
    />
    <path
      id="Vector_2"
      d="M44.5387 1.90288L44.794 8.42661L33.4587 9.21974L33.5235 10.8434L43.206 10.1643L43.4342 15.9562L33.7515 16.6336L33.823 18.4479L45.4442 17.6344L45.7012 24.1547L25.7283 25.5538L24.8518 3.28149L44.5387 1.90288Z"
      fill="#EC1848"
    />
    <path
      id="Vector_3"
      d="M124 1.23054L123.394 7.73217L112.052 7.02243L111.902 8.63932L121.59 9.24522L121.052 15.015L111.363 14.4108L111.194 16.2183L122.822 16.945L122.216 23.4433L102.233 22.194L104.305 0L124 1.23054Z"
      fill="#EC1848"
    />
    <path
      id="Vector_4"
      d="M64.257 15.4354L69.2982 22.2791H60.23L55.849 16.6778L55.9461 16.6455H55.8167L55.6449 22.2791H47.0514L47.734 0H58.4923C65.0484 0 69.0889 3.21337 68.9306 8.37041C68.8285 11.6791 67.1316 14.0993 64.257 15.4354ZM57.9119 10.566C59.3143 10.566 60.2913 9.73881 60.3287 8.52869C60.3628 7.41388 59.4335 6.65138 58.0327 6.65138H56.1214L56.0023 10.566H57.9136"
      fill="#EC1848"
    />
    <path
      id="Vector_5"
      d="M81.3342 1.90456C84.4233 1.90456 87.5243 2.4356 90.0824 3.49594L89.3199 10.0792C86.2036 8.95763 83.3221 8.36534 81.1044 8.36534C80.1377 8.36534 79.6015 8.55256 79.5845 9.11422C79.5709 9.58057 79.7802 9.83075 81.9247 10.1439C87.9191 11.0153 91.1393 12.7633 91.0083 17.0693C90.85 22.2162 86.1576 24.776 79.7598 24.776C76.7643 24.776 73.5084 24.1513 70.5197 22.8697L71.2515 16.3188C73.1271 17.2225 77.4638 18.2539 80.0202 18.2539C81.2388 18.2539 82.0558 18.0344 82.0728 17.4727C82.0949 16.7238 81.3869 16.5043 79.5215 16.2251C73.653 15.3503 70.5384 14.0738 70.6813 9.42227C70.8311 4.52564 75.9065 1.90288 81.3342 1.90288V1.90456Z"
      fill="#EC1848"
    />
    <path id="Vector_6" d="M101.359 0L100.506 22.228H92.0845L92.9355 0H101.359Z" fill="#EC1848" />
  </g>
</svg>
